<?xml version="1.0" encoding="utf-8"?>
<!-- Generator: Adobe Illustrator 15.0.0, SVG Export Plug-In . SVG Version: 6.00 Build 0)  -->
<!DOCTYPE svg PUBLIC "-//W3C//DTD SVG 1.1//EN" "http://www.w3.org/Graphics/SVG/1.1/DTD/svg11.dtd">
<svg version="1.1" id="图层_1" xmlns="http://www.w3.org/2000/svg" xmlns:xlink="http://www.w3.org/1999/xlink" x="0px" y="0px"
	 width="35px" height="35px" viewBox="0 0 35 35" enable-background="new 0 0 35 35" xml:space="preserve">
<path fill="#DC4A5F" d="M17.5,0C7.851,0,0,7.851,0,17.5C0,27.148,7.851,35,17.5,35S35,27.148,35,17.5C35,7.851,27.149,0,17.5,0
	 M17.5,32C9.505,32,3,25.494,3,17.5C3,9.505,9.505,3,17.5,3S32,9.505,32,17.5C32,25.494,25.495,32,17.5,32"/>
<path fill="#DC4A5F" d="M24.271,10.729c-0.586-0.586-1.536-0.586-2.121,0l-4.65,4.65l-4.65-4.65c-0.586-0.586-1.535-0.586-2.121,0
	s-0.586,1.534,0,2.12l4.65,4.651l-4.65,4.651c-0.586,0.586-0.586,1.535,0,2.121c0.293,0.293,0.677,0.438,1.061,0.438
	s0.769-0.146,1.061-0.438l4.65-4.651l4.65,4.651c0.293,0.293,0.677,0.438,1.061,0.438s0.768-0.146,1.061-0.438
	c0.586-0.586,0.586-1.535,0-2.121l-4.65-4.651l4.65-4.651C24.857,12.264,24.857,11.315,24.271,10.729"/>
</svg>
